<svg id="Calque_1" data-name="Calque 1" xmlns="http://www.w3.org/2000/svg" viewBox="0 0 166 137.8"><defs><clipPath id="clip-path"><path fill="none" d="M1 0h164.05v137.8H1z"/></clipPath><style>.cls-3{fill:#5a4397}</style></defs><g clip-path="url(#clip-path)"><path class="cls-3" d="M9.71 123a2.12 2.12 0 01-.54.06 3.81 3.81 0 01-.54 0 2.35 2.35 0 01-1.25-.7 2.79 2.79 0 01-.52-.85l-.35-.79H2.7L1.61 123H1l3.81-8h.41l3 6.55c.11.23.21.42.3.58a1.85 1.85 0 00.32.39 1.34 1.34 0 00.38.22 2.11 2.11 0 00.49.1zm-6.8-2.81h3.33l-1.63-3.56zm11.94 1.38a1.31 1.31 0 01-.18.69 1.7 1.7 0 01-.5.5 2.51 2.51 0 01-.76.3 4 4 0 01-.94.11 6.06 6.06 0 01-1.34-.13 1.91 1.91 0 01-.77-.36.81.81 0 01-.3-.53 5.35 5.35 0 010-.76h.27a1.43 1.43 0 00.57.94 2.19 2.19 0 001.33.35 2.09 2.09 0 001.14-.25.72.72 0 00.36-.61.78.78 0 00-.3-.62 3.37 3.37 0 00-.92-.48l-.82-.31a3.7 3.7 0 01-1.21-.67 1.4 1.4 0 01-.25-1.67 1.46 1.46 0 01.46-.5 2.41 2.41 0 01.71-.3 3.7 3.7 0 01.9-.11 5.54 5.54 0 011.28.13 1.86 1.86 0 01.76.36.81.81 0 01.3.53 5.26 5.26 0 010 .76h-.27a1.48 1.48 0 00-.56-1 2.16 2.16 0 00-1.28-.34 1.69 1.69 0 00-1 .25.72.72 0 00-.35.61.78.78 0 00.29.58 2.41 2.41 0 00.8.46l.82.31a4.22 4.22 0 011.32.7 1.25 1.25 0 01.45 1m6.06.06a1.31 1.31 0 01-.18.69 1.59 1.59 0 01-.5.5 2.56 2.56 0 01-.75.3 4.19 4.19 0 01-.95.11 6.06 6.06 0 01-1.34-.17 1.91 1.91 0 01-.77-.36.9.9 0 01-.3-.53 5.35 5.35 0 010-.76h.27a1.43 1.43 0 00.57.94 2.23 2.23 0 001.34.35 2.08 2.08 0 001.13-.25.73.73 0 00.37-.61.79.79 0 00-.31-.62 3.23 3.23 0 00-.92-.48l-.82-.31a3.54 3.54 0 01-1.2-.67 1.25 1.25 0 01-.43-1 1.26 1.26 0 01.17-.69 1.49 1.49 0 01.47-.5 2.3 2.3 0 01.71-.3 3.58 3.58 0 01.9-.11 5.51 5.51 0 011.27.13 1.91 1.91 0 01.77.36.9.9 0 01.3.53 7.25 7.25 0 010 .76h-.27a1.53 1.53 0 00-.57-1 2.13 2.13 0 00-1.27-.34 1.71 1.71 0 00-1 .25.71.71 0 00-.34.61.77.77 0 00.28.58 2.36 2.36 0 00.81.46l.81.31a4.22 4.22 0 011.32.7 1.25 1.25 0 01.45 1m1.17-1.29a3.5 3.5 0 01.19-1.16 2.82 2.82 0 01.59-.95 2.85 2.85 0 01.94-.64 3.48 3.48 0 012.54 0 2.89 2.89 0 01.95.64 2.79 2.79 0 01.58.95 3.51 3.51 0 01.2 1.17 3.42 3.42 0 01-.2 1.17 2.7 2.7 0 01-.58 1 2.92 2.92 0 01-.95.65 3.48 3.48 0 01-2.54 0 2.87 2.87 0 01-.94-.65 2.72 2.72 0 01-.59-1 3.42 3.42 0 01-.19-1.17m4.7 0a3.81 3.81 0 00-.13-1 2.65 2.65 0 00-.34-.8 1.82 1.82 0 00-.54-.53 1.31 1.31 0 00-1.39 0 1.82 1.82 0 00-.54.53 2.93 2.93 0 00-.35.8 3.81 3.81 0 00-.12 1 4 4 0 00.12 1 2.93 2.93 0 00.35.8 1.82 1.82 0 00.54.53 1.31 1.31 0 001.39 0 1.82 1.82 0 00.54-.53 2.65 2.65 0 00.34-.8 4 4 0 00.13-1m5.51-3.01a6.89 6.89 0 011.22.1 1.73 1.73 0 01.76.33.92.92 0 01.19.25.76.76 0 01.1.31v1.03h-.28a1.47 1.47 0 00-.55-1.15 2 2 0 00-1.22-.38 1.84 1.84 0 00-.88.2 1.86 1.86 0 00-.62.53 2.44 2.44 0 00-.36.8 4.32 4.32 0 00-.11 1 4.41 4.41 0 00.11 1 2.44 2.44 0 00.36.8 1.86 1.86 0 00.62.53 1.84 1.84 0 00.88.2 2.36 2.36 0 001.17-.26 2.73 2.73 0 00.81-.72l.27.18a2.65 2.65 0 01-1.08 1 3.28 3.28 0 01-1.44.3 3.4 3.4 0 01-1.33-.24 2.73 2.73 0 01-.93-.65 2.5 2.5 0 01-.55-1 3.68 3.68 0 01-.19-1.17 3.77 3.77 0 01.19-1.17 2.46 2.46 0 01.55-.94 2.6 2.6 0 01.93-.65 3.4 3.4 0 011.33-.24M37.7 123h-1.23v-4.28a1.88 1.88 0 00-.17-.89c-.11-.23-.37-.34-.78-.34h-.27v-.25h1.22a2.52 2.52 0 01.6.06.73.73 0 01.38.22 1 1 0 01.2.45 5 5 0 01.05.75zm-.08-7a.51.51 0 01-.17.4.69.69 0 01-.46.15.74.74 0 01-.54-.23.77.77 0 01-.22-.55.52.52 0 01.17-.41.64.64 0 01.45-.15.71.71 0 01.54.24.76.76 0 01.23.55m5.98 7l-.48-.55h-.07a2.1 2.1 0 01-.67.46 3 3 0 01-1.24.22 2.93 2.93 0 01-.62-.08 2.15 2.15 0 01-.64-.28 1.73 1.73 0 01-.51-.53 1.62 1.62 0 01-.2-.83 1.19 1.19 0 01.29-.83 2 2 0 01.76-.53 4.65 4.65 0 011.1-.28 11.2 11.2 0 011.32-.07h.41a3.83 3.83 0 00-.11-1 1.53 1.53 0 00-.3-.64 1 1 0 00-.45-.31 1.79 1.79 0 00-.57-.09 2 2 0 00-1 .22 1.23 1.23 0 00-.54.82h-.61a3.65 3.65 0 010-.59.91.91 0 01.3-.51 1.24 1.24 0 01.35-.2 3.17 3.17 0 01.49-.13 5.41 5.41 0 01.58-.07h.62a4.43 4.43 0 01.9.09 1.93 1.93 0 01.76.37 1.86 1.86 0 01.53.79 3.72 3.72 0 01.2 1.33V123zm-.55-2.81h-.41a3.26 3.26 0 00-1.6.33 1 1 0 00-.58.89 1.13 1.13 0 00.11.51 1.06 1.06 0 00.29.37 1.16 1.16 0 00.41.22 1.88 1.88 0 00.49.06 1.26 1.26 0 00.79-.22 2.41 2.41 0 00.5-.51zm3.38-2.42h-1v-.49h1v-1.1l.68-.73h.54v1.83h1.64v.49h-1.64v3.8q0 1.11 1 1.11a1.89 1.89 0 00.58-.08 2.87 2.87 0 00.44-.17l.13.25-.25.16a1.67 1.67 0 01-.35.15 3.44 3.44 0 01-.47.13 3.83 3.83 0 01-.63 0 1.82 1.82 0 01-1.18-.38 1.52 1.52 0 01-.45-1.22zM52.2 123H51v-4.28a2 2 0 00-.17-.89c-.12-.23-.38-.34-.79-.34h-.27v-.25H51a2.49 2.49 0 01.59.06.69.69 0 01.38.22.94.94 0 01.2.45 5 5 0 01.05.75zm-.08-7a.51.51 0 01-.17.4.67.67 0 01-.46.15.74.74 0 01-.53-.23.78.78 0 01-.23-.55.52.52 0 01.17-.41.69.69 0 01.46-.15.71.71 0 01.54.24.75.75 0 01.22.55m1.63 4.16A3.51 3.51 0 0154 119a2.67 2.67 0 01.59-.95 2.85 2.85 0 01.94-.64 3.13 3.13 0 011.27-.24 3.23 3.23 0 011.27.24 2.85 2.85 0 01.93.59 2.67 2.67 0 01.59.95 3.51 3.51 0 01.2 1.17 3.42 3.42 0 01-.2 1.17 2.58 2.58 0 01-.59 1 2.87 2.87 0 01-.94.65 3.23 3.23 0 01-1.27.24 3.13 3.13 0 01-1.27-.24 2.87 2.87 0 01-.94-.65 2.58 2.58 0 01-.59-1 3.42 3.42 0 01-.2-1.17m4.7 0a3.81 3.81 0 00-.12-1 2.66 2.66 0 00-.35-.8 1.91 1.91 0 00-.53-.53 1.32 1.32 0 00-.7-.2 1.27 1.27 0 00-.69.2 1.82 1.82 0 00-.54.53 2.66 2.66 0 00-.35.8 3.81 3.81 0 00-.12 1 4 4 0 00.12 1 2.66 2.66 0 00.35.8 1.82 1.82 0 00.54.53 1.27 1.27 0 00.69.2 1.32 1.32 0 00.7-.2A1.91 1.91 0 0058 122a2.66 2.66 0 00.35-.8 4 4 0 00.12-1m3.07-1.44a1.88 1.88 0 00-.17-.89c-.11-.23-.37-.34-.78-.34h-.27v-.25h1.22a2 2 0 01.79.13.81.81 0 01.37.36h.07a2.71 2.71 0 01.71-.42 2.83 2.83 0 011.06-.19 4 4 0 01.85.09 2 2 0 01.74.35 1.67 1.67 0 01.53.68 2.63 2.63 0 01.19 1.09V123h-1.22v-3.67a2 2 0 00-.13-.77 1.42 1.42 0 00-.34-.52 1.29 1.29 0 00-.48-.28 1.67 1.67 0 00-.55-.09 1.5 1.5 0 00-.75.2 2.61 2.61 0 00-.61.45V123h-1.23zM77.33 123h-.68l-.48-.55h-.07a2.84 2.84 0 01-.25.23 1.59 1.59 0 01-.36.23 4.06 4.06 0 01-.52.16 3.69 3.69 0 01-.71.06 2.25 2.25 0 01-1.07-.24 2.3 2.3 0 01-.77-.64 2.68 2.68 0 01-.46-1 4.36 4.36 0 01-.15-1.17A4.08 4.08 0 0172 119a2.6 2.6 0 01.47-.94 2.45 2.45 0 01.81-.65 2.54 2.54 0 011.15-.24 3.5 3.5 0 011 .12 6.63 6.63 0 01.72.25v-1.1a2 2 0 00-.17-.89c-.11-.22-.37-.34-.78-.34h-.28V115h1.18a3.17 3.17 0 01.59.05.69.69 0 01.38.22.93.93 0 01.2.46 3.73 3.73 0 01.06.74zm-1.23-5l-.65-.25a1.85 1.85 0 00-.64-.12 1.52 1.52 0 00-.79.2 1.65 1.65 0 00-.52.53 2.38 2.38 0 00-.3.8 5 5 0 00-.09 1 5.16 5.16 0 00.08 1 2.61 2.61 0 00.29.8 1.56 1.56 0 00.49.53 1.23 1.23 0 00.7.2 2 2 0 00.52-.06 1.66 1.66 0 00.4-.17 1.37 1.37 0 00.29-.24l.22-.27zm8.24 2.35h-4.13a3.12 3.12 0 00.13.93 2.13 2.13 0 00.36.74 1.68 1.68 0 00.57.49 1.79 1.79 0 00.78.17 2.17 2.17 0 001.11-.26 2.7 2.7 0 00.8-.72l.27.18a2.63 2.63 0 01-1.07 1 3 3 0 01-1.38.3 3 3 0 01-1.25-.24 2.61 2.61 0 01-.9-.65 2.46 2.46 0 01-.53-1 3.68 3.68 0 01-.18-1.17 3.77 3.77 0 01.18-1.12 2.87 2.87 0 01.54-.95 2.62 2.62 0 01.86-.64 2.64 2.64 0 011.14-.24 2.76 2.76 0 012.06.7 2.81 2.81 0 01.67 2zm-1.27-.49a3.2 3.2 0 00-.35-1.64 1.19 1.19 0 00-1.08-.57 1 1 0 00-.57.17 1.52 1.52 0 00-.45.46 2.24 2.24 0 00-.3.7 3.48 3.48 0 00-.11.88zm7.38 1.71a1.31 1.31 0 01-.18.69 1.59 1.59 0 01-.5.5 2.56 2.56 0 01-.75.3 4.12 4.12 0 01-1 .11 6 6 0 01-1.33-.13 1.89 1.89 0 01-.78-.36.9.9 0 01-.3-.53 5.35 5.35 0 010-.76h.27a1.43 1.43 0 00.57.94 2.23 2.23 0 001.34.35 2.14 2.14 0 001.14-.25.72.72 0 00.36-.61.79.79 0 00-.31-.62 3.23 3.23 0 00-.92-.48l-.82-.31a3.64 3.64 0 01-1.2-.67 1.25 1.25 0 01-.43-1 1.36 1.36 0 01.17-.69 1.49 1.49 0 01.47-.5 2.3 2.3 0 01.71-.3 3.58 3.58 0 01.9-.11 5.67 5.67 0 011.28.13 1.92 1.92 0 01.76.36.9.9 0 01.3.53 7.25 7.25 0 010 .76H90a1.49 1.49 0 00-.57-1 2.13 2.13 0 00-1.27-.34 1.73 1.73 0 00-1 .25.71.71 0 00-.34.61.77.77 0 00.28.58 2.36 2.36 0 00.81.46l.81.31a4.22 4.22 0 011.32.7 1.25 1.25 0 01.45 1m15.39 2.1a4.18 4.18 0 01-1.22-.15 1.69 1.69 0 01-.78-.47 1.86 1.86 0 01-.4-.82 5.2 5.2 0 01-.12-1.19v-4.72L100 123h-.27l-3.54-6.92V123h-.59v-8h1.29l3.27 6.37 3.2-6.37h1.23v6a4 4 0 00.31 1.75 1 1 0 001 .64zm6.02-3.24h-4.12a3.48 3.48 0 00.12.93 2.13 2.13 0 00.36.74 1.61 1.61 0 001.35.66 2.17 2.17 0 001.11-.26 2.7 2.7 0 00.8-.72l.27.18a2.63 2.63 0 01-1.07 1 3 3 0 01-1.38.3 3 3 0 01-1.25-.24 2.57 2.57 0 01-.89-.65 2.62 2.62 0 01-.54-1 3.68 3.68 0 01-.18-1.17 3.5 3.5 0 01.19-1.17 2.84 2.84 0 01.53-.95 2.72 2.72 0 01.86-.64 2.66 2.66 0 011.15-.24 2.73 2.73 0 012.05.7 2.76 2.76 0 01.67 2zm-1.27-.49a3.1 3.1 0 00-.35-1.64 1.17 1.17 0 00-1.07-.57 1.09 1.09 0 00-.58.17 1.52 1.52 0 00-.45.46 2.84 2.84 0 00-.3.7 3.49 3.49 0 00-.1.88zm4.29-2.09a2.68 2.68 0 011.77-.61 2.59 2.59 0 011 .17 1.36 1.36 0 01.69.69 2.31 2.31 0 01.91-.64 3.2 3.2 0 011.13-.22 2.86 2.86 0 01.73.09 1.5 1.5 0 01.61.35 1.67 1.67 0 01.41.68 3.06 3.06 0 01.16 1.09V123h-1.23v-3.67a2.2 2.2 0 00-.28-1.29 1 1 0 00-.81-.37 1.24 1.24 0 00-.41.08 1.84 1.84 0 00-.4.19 2.31 2.31 0 00-.36.25 2.16 2.16 0 00-.26.28 1.05 1.05 0 01.06.4V123h-1.22v-3.67a2.19 2.19 0 00-.29-1.29 1 1 0 00-.8-.37 1.51 1.51 0 00-.76.2 3.11 3.11 0 00-.61.45V123h-1.26v-4.28a2 2 0 00-.17-.89c-.12-.23-.38-.34-.79-.34h-.27v-.25h1.23a2 2 0 01.78.13.83.83 0 01.38.36zm9.26-1.34a1.88 1.88 0 00-.17-.89c-.11-.22-.37-.34-.78-.34H123v-.2h1.22a3.28 3.28 0 01.6.05.73.73 0 01.38.22 1 1 0 01.2.46 4.86 4.86 0 010 .74v1.1a6.63 6.63 0 01.72-.25 3.5 3.5 0 011-.12 2.54 2.54 0 011.15.24 2.35 2.35 0 01.81.65 2.6 2.6 0 01.47.94 4.08 4.08 0 01.16 1.17 4 4 0 01-.16 1.17 2.76 2.76 0 01-.46 1 2.36 2.36 0 01-.76.64 2.28 2.28 0 01-1.07.24 2.79 2.79 0 01-1.2-.22 2.16 2.16 0 01-.64-.46h-.07l-.47.55h-.69zm1.23 5.51a2.2 2.2 0 00.54.51 1.56 1.56 0 00.89.23 1.23 1.23 0 00.7-.2 1.56 1.56 0 00.46-.48 2.61 2.61 0 00.29-.8 5.13 5.13 0 00.09-1 5 5 0 00-.1-1 2.38 2.38 0 00-.3-.8 1.55 1.55 0 00-.52-.53 1.52 1.52 0 00-.79-.2 1.9 1.9 0 00-.64.12l-.65.25zm6.01-3.18a2 2 0 00-.17-.89c-.12-.23-.38-.34-.79-.34h-.13v-.25h1.09a1.78 1.78 0 01.78.14.73.73 0 01.37.42h.07a2.17 2.17 0 01.62-.46 2.2 2.2 0 011-.22 2.27 2.27 0 01.43 0 .82.82 0 01.38.14 1 1 0 01.26.23 2.21 2.21 0 01.22.32l-.55.37a.79.79 0 00-.44-.28 2.15 2.15 0 00-.64-.09 1.65 1.65 0 00-.75.16 1.44 1.44 0 00-.55.45V123h-1.22zm10.34 1.59h-4.12a3.48 3.48 0 00.12.93 2.13 2.13 0 00.36.74 1.71 1.71 0 00.58.49 1.79 1.79 0 00.78.17 2.22 2.22 0 001.11-.26 2.67 2.67 0 00.79-.72l.28.18a2.7 2.7 0 01-1.07 1 3.12 3.12 0 01-1.39.3 3 3 0 01-1.25-.24 2.66 2.66 0 01-.89-.65 2.62 2.62 0 01-.54-1 3.68 3.68 0 01-.18-1.17 3.77 3.77 0 01.19-1.17 2.7 2.7 0 01.54-.95 2.58 2.58 0 01.85-.64 2.66 2.66 0 011.15-.24 2.73 2.73 0 012.05.7 2.76 2.76 0 01.67 2zm-1.26-.49a3.09 3.09 0 00-.36-1.64 1.17 1.17 0 00-1.07-.57 1 1 0 00-.57.17 1.32 1.32 0 00-.45.46 2.24 2.24 0 00-.3.7 3.08 3.08 0 00-.11.88zm7.38 1.71a1.23 1.23 0 01-.19.69 1.56 1.56 0 01-.49.5 2.51 2.51 0 01-.76.3 4 4 0 01-.94.11 6.06 6.06 0 01-1.34-.13 1.91 1.91 0 01-.77-.36.81.81 0 01-.3-.53 5.15 5.15 0 01-.05-.76h.28a1.43 1.43 0 00.57.94 2.19 2.19 0 001.33.35 2.09 2.09 0 001.14-.25.72.72 0 00.36-.61.78.78 0 00-.3-.62 3.37 3.37 0 00-.92-.48l-.82-.31a3.7 3.7 0 01-1.21-.67 1.28 1.28 0 01-.43-1 1.36 1.36 0 01.17-.69 1.6 1.6 0 01.47-.5 2.41 2.41 0 01.71-.3 3.64 3.64 0 01.9-.11 5.54 5.54 0 011.28.13 1.86 1.86 0 01.76.36.81.81 0 01.3.53 5.26 5.26 0 010 .76h-.27a1.48 1.48 0 00-.56-1 2.16 2.16 0 00-1.28-.34 1.69 1.69 0 00-1 .25.72.72 0 00-.35.61.78.78 0 00.29.58 2.41 2.41 0 00.8.46l.82.31a4.22 4.22 0 011.32.7 1.25 1.25 0 01.45 1M158 123h-.68l-.48-.55h-.06l-.26.23a1.24 1.24 0 01-.36.23 3.61 3.61 0 01-.52.16 3.51 3.51 0 01-.7.06 2.32 2.32 0 01-1.08-.24 2.4 2.4 0 01-.77-.64 2.84 2.84 0 01-.45-1 4.35 4.35 0 01-.16-1.17 4.47 4.47 0 01.16-1.17 2.78 2.78 0 01.48-.94 2.32 2.32 0 01.8-.65 2.57 2.57 0 011.15-.24 3.5 3.5 0 011 .12 6.16 6.16 0 01.73.25v-1.1a1.87 1.87 0 00-.18-.89c-.11-.22-.37-.34-.78-.34h-.27V115h1.23a3.25 3.25 0 01.59.05.73.73 0 01.38.22 1 1 0 01.2.46 4.86 4.86 0 010 .74zm-1.22-5l-.65-.25a1.91 1.91 0 00-.65-.12 1.46 1.46 0 00-.78.2 1.68 1.68 0 00-.53.53 2.9 2.9 0 00-.3.8 5 5 0 00-.09 1 5.13 5.13 0 00.09 1 2.6 2.6 0 00.28.8 1.67 1.67 0 00.49.53 1.26 1.26 0 00.71.2 2.06 2.06 0 00.52-.06 1.76 1.76 0 00.39-.17 1.16 1.16 0 00.29-.24l.23-.27zm8.22 2.35h-4.1a3.48 3.48 0 00.12.93 2.13 2.13 0 00.36.74 1.71 1.71 0 00.58.49 1.74 1.74 0 00.77.17 2.17 2.17 0 001.11-.26 2.59 2.59 0 00.8-.72l.27.18a2.57 2.57 0 01-1.07 1 3 3 0 01-1.38.3 3 3 0 01-1.25-.24 2.66 2.66 0 01-.89-.65 2.62 2.62 0 01-.54-1 3.68 3.68 0 01-.18-1.17 3.5 3.5 0 01.19-1.17 2.7 2.7 0 01.54-.95 2.58 2.58 0 01.85-.64 2.66 2.66 0 011.15-.24 2.73 2.73 0 012 .7 2.76 2.76 0 01.67 2zm-1.26-.49a3.09 3.09 0 00-.36-1.64 1.17 1.17 0 00-1.07-.57 1 1 0 00-.57.17 1.32 1.32 0 00-.45.46 2.24 2.24 0 00-.3.7 3.08 3.08 0 00-.11.88zM3.61 135.53H2.54v-6.45a2.12 2.12 0 00-.14-.86.67.67 0 00-.68-.33h-.24v-.24h1.06a2.47 2.47 0 01.52 0 .59.59 0 01.33.22 1 1 0 01.17.44 4.67 4.67 0 010 .72zm1.63-5.25a2.66 2.66 0 00.69-.69 1.65 1.65 0 00.25-.92l-.35.12a.6.6 0 01-.46-.2.6.6 0 01-.19-.46.7.7 0 01.7-.72.74.74 0 01.57.22.89.89 0 01.2.62 2.5 2.5 0 01-.33 1.31 2.73 2.73 0 01-1 .9zm2.5 1.31A5.11 5.11 0 018 130a4 4 0 01.73-1.34 3.63 3.63 0 011.16-.89 3.75 3.75 0 013 0 3.53 3.53 0 011.16.89 4 4 0 01.75 1.34 5.47 5.47 0 010 3.27 4 4 0 01-.73 1.33 3.28 3.28 0 01-1.16.89 3.41 3.41 0 01-1.51.32 3.42 3.42 0 01-1.52-.32 3.37 3.37 0 01-1.16-.89 4 4 0 01-.72-1.37 5.08 5.08 0 01-.25-1.64m6.13 0a6 6 0 00-.17-1.53 3.47 3.47 0 00-.49-1.17 2.17 2.17 0 00-.77-.74 2.14 2.14 0 00-1-.26 2.08 2.08 0 00-1 .26 2.12 2.12 0 00-.78.74 3.68 3.68 0 00-.49 1.17 6 6 0 00-.17 1.53 6.1 6.1 0 00.17 1.54 3.78 3.78 0 00.49 1.17 2.2 2.2 0 00.78.74 2.08 2.08 0 001 .26 2.14 2.14 0 001-.26 2.26 2.26 0 00.77-.74 3.56 3.56 0 00.49-1.17 6.1 6.1 0 00.17-1.54m2.66-.24a2.11 2.11 0 00-.15-.86c-.09-.22-.32-.33-.67-.33h-.12v-.24h.94a1.37 1.37 0 01.68.13.74.74 0 01.32.41h.06a1.93 1.93 0 01.54-.44 1.6 1.6 0 01.88-.22 1.76 1.76 0 01.38 0 1 1 0 01.33.14 1 1 0 01.22.23 1.5 1.5 0 01.19.31l-.47.36a.83.83 0 00-.38-.27 1.69 1.69 0 00-.56-.09 1.28 1.28 0 00-.65.16 1.33 1.33 0 00-.48.43v4.42h-1.06zm9.08 4.18H25l-.42-.53h-.05l-.22.22a1.63 1.63 0 01-.32.22 2 2 0 01-.45.15 2.68 2.68 0 01-.61.06 1.78 1.78 0 01-.93-.23 1.92 1.92 0 01-.67-.63 2.64 2.64 0 01-.39-.92 4.69 4.69 0 01-.13-1.14 4.57 4.57 0 01.13-1.14 2.64 2.64 0 01.42-.93 1.93 1.93 0 011.69-.86 3 3 0 01.85.11 6.36 6.36 0 01.63.25v-1.08a2.29 2.29 0 00-.15-.86.67.67 0 00-.68-.33h-.24v-.24h1.07a2.44 2.44 0 01.51 0 .59.59 0 01.33.22 1 1 0 01.17.44 4.67 4.67 0 01.05.72zm-1.06-4.89l-.57-.25a1.64 1.64 0 00-.56-.11 1.18 1.18 0 00-.68.19 1.53 1.53 0 00-.45.52 2.75 2.75 0 00-.26.78 5.64 5.64 0 00-.08 1 4.91 4.91 0 00.08 1 2.75 2.75 0 00.24.78 1.71 1.71 0 00.43.52 1 1 0 00.61.19 1.36 1.36 0 00.79-.22 1.14 1.14 0 00.25-.24l.2-.26zm2.85.71a2.11 2.11 0 00-.15-.86c-.09-.22-.32-.33-.68-.33h-.11v-.24h.94a1.37 1.37 0 01.68.13.74.74 0 01.32.41h.06A2 2 0 0129 130a1.66 1.66 0 01.89-.22 1.76 1.76 0 01.38 0 1 1 0 01.33.14 1 1 0 01.22.23 2.1 2.1 0 01.19.31l-.47.36a.81.81 0 00-.39-.27 1.6 1.6 0 00-.56-.09 1.27 1.27 0 00-.64.16 1.33 1.33 0 00-.48.43v4.42h-1.06zm8.97 1.56h-3.57a3.71 3.71 0 00.1.9 2.55 2.55 0 00.31.73 1.52 1.52 0 00.51.47 1.33 1.33 0 00.67.17 1.72 1.72 0 001-.26 2.31 2.31 0 00.69-.7l.24.18a2.56 2.56 0 01-.93 1 2.47 2.47 0 01-1.2.28 2.26 2.26 0 01-1.86-.86 2.57 2.57 0 01-.46-.92 3.88 3.88 0 01-.16-1.14 4.13 4.13 0 01.16-1.14 2.72 2.72 0 01.47-.93 2.37 2.37 0 01.74-.63 2.13 2.13 0 011-.23 2.24 2.24 0 011.79.68 3 3 0 01.57 2zm-1.1-.48a3.45 3.45 0 00-.3-1.6 1 1 0 00-.94-.55.8.8 0 00-.49.16 1.44 1.44 0 00-.39.45 2.47 2.47 0 00-.26.68 3.85 3.85 0 00-.09.86zm9.92 3.1h-.59l-.42-.53h-.06l-.21.22a1.63 1.63 0 01-.32.22 2 2 0 01-.45.15 2.68 2.68 0 01-.61.06 1.78 1.78 0 01-.93-.23 1.92 1.92 0 01-.67-.63 2.64 2.64 0 01-.39-.92 4.69 4.69 0 01-.13-1.14 4.57 4.57 0 01.13-1.14 2.64 2.64 0 01.42-.93 1.93 1.93 0 011.69-.86 3 3 0 01.85.11 5.32 5.32 0 01.62.25v-1.08a2.31 2.31 0 00-.14-.86.67.67 0 00-.68-.33h-.24v-.24h1.06a2.47 2.47 0 01.52 0 .59.59 0 01.33.22 1 1 0 01.17.44 4.67 4.67 0 01.05.72zm-1.07-4.89l-.56-.25a1.64 1.64 0 00-.56-.11 1.18 1.18 0 00-.68.19 1.53 1.53 0 00-.45.52 2.75 2.75 0 00-.26.78 5.64 5.64 0 00-.08 1 4.91 4.91 0 00.08 1 2.75 2.75 0 00.24.78 1.71 1.71 0 00.43.52 1 1 0 00.61.19 1.36 1.36 0 00.79-.22 1.14 1.14 0 00.25-.24l.19-.26zm7.14 2.27H47.7a3.71 3.71 0 00.1.9 2.56 2.56 0 00.32.73 1.4 1.4 0 00.5.47 1.36 1.36 0 00.67.17 1.67 1.67 0 001-.26 2.31 2.31 0 00.69-.7l.24.18a2.56 2.56 0 01-.93 1 2.46 2.46 0 01-1.19.28 2.34 2.34 0 01-1.09-.23 2.25 2.25 0 01-.77-.63 2.59 2.59 0 01-.47-.92 4.24 4.24 0 01-.15-1.14 3.79 3.79 0 01.16-1.14 2.7 2.7 0 01.46-.93A2.52 2.52 0 0148 130a2.13 2.13 0 011-.23 2.23 2.23 0 011.78.68 3 3 0 01.58 2zm-1.09-.48a3.44 3.44 0 00-.31-1.6 1 1 0 00-.93-.55.83.83 0 00-.5.16 1.44 1.44 0 00-.39.45 2.84 2.84 0 00-.26.68 3.85 3.85 0 00-.09.86zm6.39 1.67a1.3 1.3 0 01-.16.67 1.41 1.41 0 01-.43.48 1.85 1.85 0 01-.65.3 3.12 3.12 0 01-.82.1 4.64 4.64 0 01-1.16-.12 1.46 1.46 0 01-.67-.35.89.89 0 01-.26-.52 7 7 0 010-.74h.24a1.42 1.42 0 00.5.92 1.7 1.7 0 001.15.34 1.64 1.64 0 001-.24.72.72 0 00.31-.6.77.77 0 00-.27-.6 2.56 2.56 0 00-.79-.47l-.71-.3a3 3 0 01-1-.66 1.29 1.29 0 01-.38-1 1.37 1.37 0 01.56-1.15 1.93 1.93 0 01.61-.3 2.78 2.78 0 01.78-.1 3.84 3.84 0 011.11.13 1.47 1.47 0 01.66.35.84.84 0 01.26.51 7 7 0 010 .74h-.24a1.48 1.48 0 00-.49-.92 1.66 1.66 0 00-1.1-.33 1.38 1.38 0 00-.88.24.73.73 0 00-.3.59.81.81 0 00.24.57 2.23 2.23 0 00.7.45l.71.3a3.72 3.72 0 011.14.68 1.31 1.31 0 01.39 1m5.71 1.46h-1.06v-6.45a2.11 2.11 0 00-.15-.86c-.09-.22-.32-.33-.68-.33h-.23v-.24h3.07a6.05 6.05 0 01.88.07 3.08 3.08 0 011 .32 2.06 2.06 0 01.78.72 2.31 2.31 0 01.32 1.28 2.35 2.35 0 01-.15.88 2 2 0 01-.91 1 2.6 2.6 0 01-.58.23 4 4 0 01-.54.11h-1.72zm.89-3.64a2.09 2.09 0 00.56-.09 1.82 1.82 0 00.59-.33 1.93 1.93 0 000-3 1.82 1.82 0 00-.59-.33 2.09 2.09 0 00-.56-.09h-.47l-.42.09v3.58l.42.09h.47m7.61 3.72l-.41-.53h-.06a1.79 1.79 0 01-.58.44 2.34 2.34 0 01-1.07.21 2.24 2.24 0 01-.55-.07 1.76 1.76 0 01-.55-.27A1.58 1.58 0 0167 134a1.35 1.35 0 01.25-.81 1.68 1.68 0 01.66-.51 3.37 3.37 0 011-.27 7 7 0 011.14-.08h.36a4.12 4.12 0 00-.1-1 1.56 1.56 0 00-.26-.62.88.88 0 00-.39-.31 1.57 1.57 0 00-.49-.08 1.53 1.53 0 00-.83.21 1.22 1.22 0 00-.47.8h-.53a3.4 3.4 0 010-.57.88.88 0 01.25-.5 1 1 0 01.31-.19 1.8 1.8 0 01.43-.13 2.51 2.51 0 01.5-.07 4.75 4.75 0 01.54 0 3.31 3.31 0 01.77.09 1.43 1.43 0 01.66.36 1.82 1.82 0 01.46.76 4.22 4.22 0 01.17 1.3v3.22zm-.47-2.74H70a2.47 2.47 0 00-1.38.33 1 1 0 00-.5.86 1.28 1.28 0 00.09.5 1 1 0 00.25.36.84.84 0 00.35.21 1.55 1.55 0 00.43.07 1.06 1.06 0 00.69-.22 2.53 2.53 0 00.43-.5zm3.81 2.74h-1.06v-6.45a2.11 2.11 0 00-.15-.86c-.1-.22-.32-.33-.68-.33H72v-.24h1.07a2.44 2.44 0 01.51 0 .59.59 0 01.33.22 1 1 0 01.17.44 4.67 4.67 0 010 .72zm2.99-5.13a2 2 0 01.61-.41 2 2 0 01.92-.19 2 2 0 01.82.17 1.22 1.22 0 01.6.67 1.88 1.88 0 01.79-.62 2.29 2.29 0 011-.22 2.18 2.18 0 01.63.09 1.1 1.1 0 01.52.34 1.72 1.72 0 01.36.66 3.49 3.49 0 01.14 1.06v3.58h-1.08V132a2.34 2.34 0 00-.25-1.25.81.81 0 00-.7-.36.92.92 0 00-.36.07 1.7 1.7 0 00-.35.19 1.42 1.42 0 00-.3.25 1.38 1.38 0 00-.23.27 1.44 1.44 0 01.06.39v4h-1.06V132a2.25 2.25 0 00-.28-1.3.79.79 0 00-.69-.36 1.18 1.18 0 00-.66.19 2.24 2.24 0 00-.52.44v4.56h-1.04v-4.18a2.31 2.31 0 00-.14-.86.67.67 0 00-.68-.33H75v-.24h1.06a1.5 1.5 0 01.68.12.76.76 0 01.33.36zm12.4 2.51H86a3.7 3.7 0 00.11.9 2.3 2.3 0 00.31.73 1.59 1.59 0 00.5.47 1.37 1.37 0 00.68.17 1.72 1.72 0 001-.26 2.56 2.56 0 00.69-.7l.23.18a2.24 2.24 0 01-2.12 1.25 2.23 2.23 0 01-1.86-.86 2.57 2.57 0 01-.46-.92 3.88 3.88 0 01-.16-1.14 3.79 3.79 0 01.16-1.14 2.72 2.72 0 01.47-.93 2.37 2.37 0 01.74-.63 2.13 2.13 0 011-.23 2.2 2.2 0 011.78.68 2.91 2.91 0 01.58 2zm-1.1-.48a3.31 3.31 0 00-.31-1.6 1 1 0 00-.93-.55.8.8 0 00-.49.16 1.44 1.44 0 00-.39.45 2.47 2.47 0 00-.26.68 3.33 3.33 0 00-.1.86zm6.4 1.67a1.41 1.41 0 01-.16.67 1.52 1.52 0 01-.43.48 1.82 1.82 0 01-.66.3 3.07 3.07 0 01-.82.1 4.5 4.5 0 01-1.15-.12 1.5 1.5 0 01-.68-.35 1 1 0 01-.26-.52 7.39 7.39 0 010-.74h.23a1.47 1.47 0 00.5.92 1.73 1.73 0 001.16.34 1.63 1.63 0 001-.24.72.72 0 00.31-.6.76.76 0 00-.26-.6 2.63 2.63 0 00-.8-.47l-.71-.3a3.16 3.16 0 01-1-.66 1.28 1.28 0 01-.37-1 1.47 1.47 0 01.15-.67 1.32 1.32 0 01.4-.48 2 2 0 01.62-.3 2.68 2.68 0 01.78-.1 3.81 3.81 0 011.1.13 1.46 1.46 0 01.67.35 1 1 0 01.26.51 7.39 7.39 0 010 .74h-.24a1.44 1.44 0 00-.49-.92 1.66 1.66 0 00-1.1-.33 1.4 1.4 0 00-.88.24.73.73 0 00-.3.59.78.78 0 00.25.57 2.12 2.12 0 00.7.45l.7.3a3.67 3.67 0 011.15.68 1.31 1.31 0 01.39 1m11.2 1.46a1.7 1.7 0 01-.48.06 2.77 2.77 0 01-.46 0 1.73 1.73 0 01-.54-.21 2.34 2.34 0 01-.55-.47 2.81 2.81 0 01-.45-.83l-.3-.77H100l-1 2.26h-.53l3.31-7.88h.35l2.6 6.39c.09.22.18.41.26.57a2 2 0 00.28.38 1.15 1.15 0 00.33.21 1.6 1.6 0 00.43.1zm-5.9-2.74h2.89l-1.42-3.47zm8.71-2.99a4.56 4.56 0 011 .1 1.28 1.28 0 01.66.32 1 1 0 01.17.24 1.26 1.26 0 01.09.31v1h-.23a1.44 1.44 0 00-1.54-1.49 1.47 1.47 0 00-.77.19 1.75 1.75 0 00-.53.52 2.5 2.5 0 00-.31.78 4.1 4.1 0 00-.1 1 4.22 4.22 0 00.1 1 2.5 2.5 0 00.31.78 1.87 1.87 0 00.53.52 1.57 1.57 0 00.77.19 1.92 1.92 0 001-.25 2.47 2.47 0 00.69-.71l.24.18a2.51 2.51 0 01-.94 1 2.61 2.61 0 01-1.24.28 2.64 2.64 0 01-1.16-.23 2.16 2.16 0 01-.8-.63 2.45 2.45 0 01-.48-.92 3.88 3.88 0 01-.16-1.14 3.79 3.79 0 01.16-1.14 2.42 2.42 0 01.48-.93 2.38 2.38 0 01.8-.63 2.79 2.79 0 011.16-.23m6.96 5.62l-.41-.53h-.06a1.79 1.79 0 01-.58.44 2.28 2.28 0 01-1.07.21 2.11 2.11 0 01-.54-.07 1.81 1.81 0 01-.56-.27 1.48 1.48 0 01-.43-.52 1.62 1.62 0 01-.14-.79 1.28 1.28 0 01.25-.81 1.55 1.55 0 01.66-.51 3.21 3.21 0 01.95-.27 7.16 7.16 0 011.15-.08h.35a4.75 4.75 0 00-.09-1 1.72 1.72 0 00-.26-.62.86.86 0 00-.4-.31 1.53 1.53 0 00-.49-.08 1.55 1.55 0 00-.83.21 1.26 1.26 0 00-.47.8h-.53a4.93 4.93 0 010-.57.84.84 0 01.26-.5.86.86 0 01.3-.19 1.8 1.8 0 01.43-.13 2.74 2.74 0 01.5-.07 4.89 4.89 0 01.54 0 3.25 3.25 0 01.77.09 1.43 1.43 0 01.66.36 1.72 1.72 0 01.46.76 3.94 3.94 0 01.17 1.3v3.22zm-.47-2.74H115a2.53 2.53 0 00-1.39.33 1 1 0 00-.5.86 1.28 1.28 0 00.09.5 1.1 1.1 0 00.25.36.82.82 0 00.36.21 1.42 1.42 0 00.42.07 1.06 1.06 0 00.69-.22 2.53 2.53 0 00.43-.5zm7.19 2.74h-.59l-.41-.53h-.06l-.22.22a1.54 1.54 0 01-.31.22 2.37 2.37 0 01-.45.15 2.83 2.83 0 01-.62.06 1.78 1.78 0 01-.93-.23 1.81 1.81 0 01-.66-.63 2.85 2.85 0 01-.4-.92 4.69 4.69 0 01-.13-1.14 4.56 4.56 0 01.14-1.14 2.63 2.63 0 01.41-.93 2.12 2.12 0 01.7-.63 2 2 0 011-.23 3 3 0 01.85.11 4.86 4.86 0 01.63.25v-1.08a2.11 2.11 0 00-.15-.86c-.1-.22-.32-.33-.68-.33h-.23v-.24h1.06a2.44 2.44 0 01.51 0 .59.59 0 01.33.22 1 1 0 01.17.44 4.67 4.67 0 01.05.72zm-1.06-4.89l-.56-.25a1.68 1.68 0 00-.56-.11 1.14 1.14 0 00-.68.19 1.45 1.45 0 00-.46.52 3.1 3.1 0 00-.26.78 5.64 5.64 0 00-.08 1 5.83 5.83 0 00.08 1 2.47 2.47 0 00.25.78 1.55 1.55 0 00.42.52 1 1 0 00.61.19 1.53 1.53 0 00.45-.06 1.34 1.34 0 00.34-.2 1 1 0 00.25-.24l.2-.26zm7.14 2.27H125a3.7 3.7 0 00.11.9 2.3 2.3 0 00.31.73 1.59 1.59 0 00.5.47 1.36 1.36 0 00.67.17 1.73 1.73 0 001-.26 2.56 2.56 0 00.69-.7l.23.18a2.24 2.24 0 01-2.12 1.25 2.23 2.23 0 01-1.86-.86 2.76 2.76 0 01-.47-.92 4.24 4.24 0 01-.15-1.14 3.79 3.79 0 01.16-1.14 2.72 2.72 0 01.47-.93 2.37 2.37 0 01.74-.63 2.13 2.13 0 011-.23 2.21 2.21 0 011.78.68 2.91 2.91 0 01.58 2zm-1.1-.48a3.31 3.31 0 00-.31-1.6 1 1 0 00-.93-.55.83.83 0 00-.5.16 1.56 1.56 0 00-.38.45 2.47 2.47 0 00-.26.68 3.33 3.33 0 00-.1.86zm-1.12-3.17h-.47l.47-1.55h1.12zm4.84 1.14a2.09 2.09 0 01.61-.41 2 2 0 01.92-.19 2 2 0 01.82.17 1.22 1.22 0 01.6.67 1.94 1.94 0 01.84-.64 2.29 2.29 0 011-.22 2.18 2.18 0 01.63.09 1.13 1.13 0 01.53.34 1.86 1.86 0 01.35.66 3.2 3.2 0 01.14 1.06v3.58h-1.06V132a2.25 2.25 0 00-.25-1.25.8.8 0 00-.7-.36 1 1 0 00-.36.07 1.63 1.63 0 00-.34.19 1.48 1.48 0 00-.31.25 1.31 1.31 0 00-.22.27 1.54 1.54 0 010 .39v4h-1.06V132a2.25 2.25 0 00-.25-1.25.78.78 0 00-.69-.36 1.18 1.18 0 00-.66.19 2.47 2.47 0 00-.52.44v4.56h-1.06v-4.18a2.11 2.11 0 00-.15-.86.67.67 0 00-.68-.33h-.24v-.24h1.07a1.49 1.49 0 01.67.12.72.72 0 01.33.36zm9.26 5.13h-1.06v-4.18a2.07 2.07 0 00-.15-.86c-.1-.22-.32-.33-.68-.33h-.23v-.24h1.06a2.37 2.37 0 01.51.05.59.59 0 01.33.22.88.88 0 01.17.44 3.68 3.68 0 01.05.72zm-.07-6.86a.53.53 0 01-.15.39.56.56 0 01-.39.14.6.6 0 01-.47-.22.81.81 0 01-.19-.54.49.49 0 01.54-.54.61.61 0 01.47.23.79.79 0 01.19.54m5.16 6.63q-.27.12-.63.24a2.66 2.66 0 01-.85.11 1.93 1.93 0 01-1-.23 2 2 0 01-.7-.63 2.66 2.66 0 01-.41-.92 4.68 4.68 0 01-.14-1.14 4.57 4.57 0 01.13-1.14 2.81 2.81 0 01.4-.93 2 2 0 01.64-.66 1.9 1.9 0 01.94-.23 2.14 2.14 0 011 .21 2.1 2.1 0 01.56.45h.06l.41-.54h.59v7.88h-1.06zm0-4.31l-.21-.26a1.16 1.16 0 00-.26-.23 1.26 1.26 0 00-.33-.16 1.51 1.51 0 00-.44-.06 1 1 0 00-.61.19 1.46 1.46 0 00-.42.52 2.47 2.47 0 00-.25.78 5.64 5.64 0 00-.08 1 5.83 5.83 0 00.08 1 3.1 3.1 0 00.26.78 1.54 1.54 0 00.46.52 1.21 1.21 0 00.68.19 1.49 1.49 0 00.56-.12 5.55 5.55 0 00.56-.24zm7.37 4.54h-.59l-.41-.47h-.06a2.09 2.09 0 01-.61.41 2.19 2.19 0 01-.92.18 3.65 3.65 0 01-.74-.08 1.59 1.59 0 01-.64-.34 1.73 1.73 0 01-.46-.66 3 3 0 01-.17-1.07v-2.15a2.11 2.11 0 00-.15-.86c-.09-.22-.32-.33-.67-.33h-.12v-.24h.94a2.47 2.47 0 01.52.05.6.6 0 01.32.22 1 1 0 01.18.44 4.84 4.84 0 010 .72v2.15a2.31 2.31 0 00.11.76 1.51 1.51 0 00.3.5 1 1 0 00.41.27 1.36 1.36 0 00.48.09 1.27 1.27 0 00.66-.19 2.51 2.51 0 00.52-.45v-4.56h1.06zm6.07-2.62h-3.57a3.71 3.71 0 00.1.9 2.31 2.31 0 00.32.73 1.4 1.4 0 00.5.47 1.33 1.33 0 00.67.17 1.67 1.67 0 001-.26 2.31 2.31 0 00.69-.7l.24.18a2.56 2.56 0 01-.93 1 2.47 2.47 0 01-1.2.28 2.26 2.26 0 01-1.86-.86 2.74 2.74 0 01-.46-.92 4.24 4.24 0 01-.15-1.14 4.14 4.14 0 01.15-1.14 2.91 2.91 0 01.47-.93 2.4 2.4 0 01.75-.63 2.13 2.13 0 011-.23 2.23 2.23 0 011.78.68 3 3 0 01.58 2zm-1.1-.48a3.45 3.45 0 00-.3-1.6 1 1 0 00-.93-.55.81.81 0 00-.5.16 1.44 1.44 0 00-.39.45 2.47 2.47 0 00-.26.68 3.85 3.85 0 00-.09.86zm6.41 1.67a1.3 1.3 0 01-.16.67 1.41 1.41 0 01-.43.48 1.85 1.85 0 01-.65.3 3.12 3.12 0 01-.82.1 4.58 4.58 0 01-1.16-.12 1.46 1.46 0 01-.67-.35.89.89 0 01-.26-.52 5 5 0 010-.74h.24a1.46 1.46 0 00.49.92 1.75 1.75 0 001.16.34 1.64 1.64 0 001-.24.75.75 0 00.31-.6.77.77 0 00-.27-.6 2.56 2.56 0 00-.79-.47l-.71-.3a3.11 3.11 0 01-1-.66 1.32 1.32 0 01-.37-1 1.47 1.47 0 01.15-.67 1.35 1.35 0 01.41-.48 1.83 1.83 0 01.61-.3 2.78 2.78 0 01.78-.1 3.84 3.84 0 011.11.13 1.47 1.47 0 01.66.35.84.84 0 01.26.51 7.39 7.39 0 010 .74h-.23a1.48 1.48 0 00-.49-.92 1.66 1.66 0 00-1.1-.33 1.38 1.38 0 00-.88.24.74.74 0 00-.31.59.82.82 0 00.25.57 2.23 2.23 0 00.7.45l.71.3a3.72 3.72 0 011.14.68 1.31 1.31 0 01.39 1"/><path d="M120.47 32.44c-2.84-.68-7.1 1.37-7.1 1.37-.14-8.73.16-7.49 1-10.25s2.34-3.48 2.34-3.48a9.08 9.08 0 00-7.49 2.83S106 16 104.24 12.67A18.86 18.86 0 01102.17 7a18.26 18.26 0 015.8 3.54c-1.34-3.58-6.4-6-6.4-6l-.27-2.84c-1.9.75-2.24 1.79-2.24 1.79-3.06-1.16-11-1.06-11-1.06S86.13.12 85.5 0s.28 2.92.28 2.92l-.67.48c-10-2.33-15.36-.94-15.36-.94a5.93 5.93 0 00-2.52-2l-.36 2.72c-8.7 4.2-7.41 5.52-7.41 5.52l7.15-2.72c-2.09 7.91-4.92 8.16-4.92 8.16-2.1-5.95-5.79-6.22-5.79-6.22 2.29 6.94-1.22 19.44-1.22 19.44-3.89-4.12-8-3.59-8-3.59C53.66 34.2 53.72 44 53.72 44a5.83 5.83 0 00-4.86-.34c9.3 8.28 6.46 10.29 6.46 10.29-5.32-.95-7.74 1.21-7.74 1.21 12.84 6.62 14.86 11.27 14.86 11.27a6.47 6.47 0 00-4.68 2.76c9.67.76 18.48 7.69 18.48 7.69-3.75 2.72-11.65 2.35-11.65 2.35s-1.3-1.86-6.44-.07S54.24 83 54.24 83c21.22 3.28 30.2-2.58 30.2-2.58a37.85 37.85 0 0017.82 2.74 17.49 17.49 0 002.11 1c1.4.59 4.82-.47 6.46-.57s.5-1.26.5-1.26c-3.74-5.39-8.69-3-8.69-3A30.75 30.75 0 0191 76.44c12.7-9.85 17-8.88 19.22-8.9a9.38 9.38 0 014.32 1.22c.63-5.43-7.07-6.53-7.07-6.53s1.4-2.14 5.28-8.11 8.74-7.4 8.74-7.4c-2.43-2.06-7.45-1.28-7.45-1.28 1.13-7.67 7.64-12.27 7.64-12.27s1.6-.05-1.23-.73M71 4.75s3.58-.9 5.77.51A30.67 30.67 0 0171.15 9 5.77 5.77 0 0071 4.75m27.89 30.61A9.88 9.88 0 0094 34.19c6.87 10 2.59 18.69 2.59 18.69-1.69-1.75-2-1.13-2-1.13C93.18 67 83.37 72.64 83.37 72.64c-8.22-6-7.17-18-7.17-18-2 .55-3.27 3-3.27 3-2.9-7.73 2.88-15.25 2.88-15.25-2.82-.93-7.93 3.42-7.93 3.42-.87-12.49 8.25-12.4 8.25-12.4l-.4-.51c-2.7-3-8.29-1.26-8.29-1.26a23.73 23.73 0 015.21-10.59 13.47 13.47 0 0110.75-4.64c-1-1.22-6-2.93-7.82-2.73s-.79-.39-.79-.39a57.7 57.7 0 018.81-5.73c2.85 1.27 3.31 2.35 3.31 2.35-3.47.08-3.92 1-3.92 1 11.48 4.09 12.17 8.68 12.17 8.68-3.31-1.48-7.71-.55-7.71-.55 12.73 10.54 11.44 16.32 11.44 16.32M99 10.3s-3.48-3.59-6-4.22c-.12-.28-1.35-.54-.82-1.1 0 0 4.55-.44 6.62.6a7.58 7.58 0 00.2 4.72" fill="#ada1cd"/><path class="cls-3" d="M47.88 24.49s5.88.25 8.28 7.9a84.8 84.8 0 013.09 16l-2.35-3s-.41-13.37-6.68-19a37.28 37.28 0 015.6 18.39l-1.77-1.19s.78-7.09-6.17-19.18M61.87 6.76S67.09.84 79.66 3.37l-2 1.43s-5.13-3.08-15.79 2m43.13.64s-5.13-6-17.74-3.68l2 1.47s5.17-3 15.76 2.21"/><path class="cls-3" d="M62 16.41a21 21 0 01-.22 6.87S74.05 7.13 68.09 1.93c0 0 1.94 4.28-6.08 14.48M50.35 44.16s5.87 4.36 7.2 10.64l1.52 1s-.62-4.56-6-10.48a20.09 20.09 0 017 11.07l2.85 1.77s-3.22-12.75-12.53-14m29.78-28.31s-5.33-3.32-10.09.87-10.75 10.43-10 25.67c0 0-.36-2.66 2.79-7.81 0 0 1.14-13.89 10.51-17.64l3.17-1.37-.19.77s-10.26 2-11.93 16.76l1.39-1.3s1.28-12.63 14.35-15.95"/><path class="cls-3" d="M74.39 33.13S62 27.82 61.68 45.89c0 0-.26 4.28 3.86 13 0 0-1.55-3.06-.11-7.84 0 0-4.36-8 1.37-15.13 0 0 2.58-2.81 4.1-2.49 0 0-8.55 4.5-5.07 15.63l1-1.66S64 35.49 74.39 33.13M57.1 9.19s1.67 11.09-1.34 18.65l.78 2s3.24-9.28 1.81-16.55c0 0 .54-1.77.85 2.23a34.12 34.12 0 01-2.11 15.4l1.51 4s5.67-19.19-1.5-25.76"/><path class="cls-3" d="M74.27 43.43s-17.33 6.07-1.53 24.48c0 0-1.56-.88-1.27-5.78 0-.27-6.73-9.59.6-16.88l-.47 1.35s-3.95 4 .17 13.88a6.76 6.76 0 01.71-1.91c0-.28-3.73-6.44 1.79-15.14"/><path class="cls-3" d="M75.28 56.76s-8.49 10 5.92 18.48c0 0 .67.17 1.7-1.43 0 0-8.65-6.31-7.62-17.05m-25.19-1.29s10.29-2.94 19.63 12a13.12 13.12 0 00-3.39-1.22A27.07 27.07 0 0053 56.11s8.55 4.53 12 9.89a7.71 7.71 0 00-2 0s-.84-4.35-12.87-10.48m9.6 12.84c.15-.09 5.72-3.13 13 2.23s6.82 5.13 6.82 5.13.88.54-1.17 1.45c0 0-10-7.6-18.31-8.17 0 0-1.45.07-.37-.64"/><path class="cls-3" d="M95.17 53.18s1.24 9.59-9.93 20.2a28.85 28.85 0 01-15.59 6.79s.87.82 3.63.47 15-2.6 23.43-17.84a8.92 8.92 0 00-1.54-9.62"/><path class="cls-3" d="M114.06 67.91s-2.26-6.63-9.82-4.16-6.89 8.63-26.09 16.86L76.44 82s7.24-.91 17.77-8.83 15.34-6.93 19.85-5.25M95.73 35.2s6.43 7.29 1.84 18.78l.56 2s2.15-1.78 2.84-8.72-3-9.82-3-9.82a11.61 11.61 0 013.8 10.82c-1.16 7-3.33 9.15-3.33 9.15a8.39 8.39 0 01-1.33 7.68c-2.86 3.67 7.26-6.12 7.72-16s-9.1-13.89-9.1-13.89"/><path class="cls-3" d="M89.38 19.61s10.45 7.62 11.06 16.87l1.83 2.25s.76-7.52-8.4-16.81l.81.15s8.84 7.53 8.45 17.51c0 0 2.84 4.71 2.74 9.15 0 0 3.74-10.47-1.51-20.89 0 0-5.74-8.69-15-8.23m30.79 27.2s-7.39-1.77-11.71 4.83S100 64.53 100 64.53s2.7-2.25 4.14-2.1c0 0 5.89-12.84 12.76-15l-.63.78s-4.93 2.61-11.25 14c0 0 1.43-.54 1.94-.28 0-.33 5.16-12.27 13.16-15.15m-13.3 4.94s4-20.07 13.53-18.65c0 0-4.62 1.1-7.6 12.31 0 0 0 .82-.27.91s-1 .54-1 .54.32-4.62 6.16-12.47c0 0-4.22 2.53-7.26 12.84l.59-.05s-1.64.26-4.19 4.57M115 20.76s-4.84.47-5.9 4.88-.48 14.81-.48 14.81a13.27 13.27 0 011.72-4.05s-.32-11.8 2.73-14.08a30.2 30.2 0 00-1.84 12.83l1.51-1.6s-.56-8.12 2.26-12.79"/><path class="cls-3" d="M85.07 10.86s12.32-3.67 20 15.58a10.54 10.54 0 00-4.62-4.65c.09-.28-3.83-7.51-11.46-10l.34.47s7.38 4.24 9.9 8.67L96 19.32s.41-3.72-11-8.46m1.72-8.72a18.93 18.93 0 006.87 5.12c4.68 2.17 7.69 9.19 7.69 9.19s-2.35-3.72-5-4.78-9.1-6.27-9.59-9.53m14.2 1.51s-3.78 1.79.85 12.31l4.63 10.53a4.22 4.22 0 01.94-2s-4.9-9.94-6.11-14-.88-5.3-.88-5.3-.25 2 2.35 7.87 4.92 10.72 4.92 10.72l.46-.77s-6.12-14-6.88-16.1a5.93 5.93 0 01-.28-3.23M87.48 78.56l1.9-1.23s.43 1.31 7.43 2.89-1.8.49-1.8.49-6-1-7.53-2.15m8.81 3.67S94.14 82.89 85 80l1.38-.79a27.54 27.54 0 009.54 2.53zM107 80.68s-3-.19-3.28 1.18l.12 1.22s-.53-1.6-5.93-1a8.51 8.51 0 015.21-.45s0-2 3.88-1"/><path class="cls-3" d="M109.87 82.84s.31-2.12-3.84-1.44.2 2 .2 2l3.64-.54M62.74 82s.46-1.89-2.26-1.49-3.12 1.28-3.12 1.28l1.43.55s.88 1.1 4-.34"/><path class="cls-3" d="M54.8 82.05A12.74 12.74 0 0162.88 80a2 2 0 011.5 2.9l-.67.42s1.2-2.35-.64-2.86-5.55.51-5.55.51zM84.2 6.84a20.2 20.2 0 011.91-1l7.32 5a17.56 17.56 0 00-4.77-.84s1.57-.74-4.46-3.14m-15.49 7.71s2.46-3.07 2.34-4.28l10.25-7s1 1.55-2.89 4.58-9.7 6.72-9.7 6.72m-26.56 89.25a6.7 6.7 0 001.64 2.31 3.91 3.91 0 002.24 1v.85a7.65 7.65 0 01-.84.11 8.58 8.58 0 01-1 .05 13.45 13.45 0 01-1.92-.15 7.1 7.1 0 01-2-.59 6.57 6.57 0 01-1.87-1.28 7.66 7.66 0 01-1.55-2.26L36 102H26l-3 6h-1.9l11-21.71h1.68zm-15.32-3.32h8.48l-4.13-8.59zm46.92 1.88a13.09 13.09 0 00.58 4.49 2.64 2.64 0 002.15 1.76v.82q-4.08 0-5.83-1.68t-1.75-5.39V90.75L60.73 108H59.5l-10-17.9V108h-1.87V86.28h4.55l9 16.15 7.65-16.15h4.89zm4.78-5.27a11.63 11.63 0 01.88-4.54 10.48 10.48 0 012.5-3.65 11.73 11.73 0 013.88-2.43 14.8 14.8 0 0110.11 0 11.64 11.64 0 013.86 2.43 10.7 10.7 0 012.48 3.65 12.15 12.15 0 010 9.08 10.74 10.74 0 01-2.48 3.66 11.64 11.64 0 01-3.86 2.43 14.8 14.8 0 01-10.11 0 11.73 11.73 0 01-3.88-2.43 10.52 10.52 0 01-2.5-3.66 11.56 11.56 0 01-.88-4.54m19.44 0q0-4.8-1.87-7.42a6.59 6.59 0 00-10.5 0q-1.84 2.63-1.85 7.42t1.85 7.42a6.57 6.57 0 0010.5 0q1.9-2.61 1.9-7.42m17.25-10.85c.54 0 1.18 0 1.9.06a15.73 15.73 0 012.2.31 13.77 13.77 0 012.18.68 6.51 6.51 0 011.92 1.17 5.26 5.26 0 011.37 1.81 6.09 6.09 0 01.5 2.58 5.52 5.52 0 01-.5 2.43 5.44 5.44 0 01-1.33 1.73 6.87 6.87 0 01-1.83 1.14 12.15 12.15 0 01-2 .65 11.14 11.14 0 01-1.87.3c-.58 0-1.06.07-1.43.07h-3.55V108H108V90.55a5.22 5.22 0 00-.47-2.38c-.31-.61-1-.91-2.14-.91H105v-1zm0 1.31h-.9c-.3 0-.56.06-.78.1s-.53.08-.75.1v10.1h2.24a7.75 7.75 0 001.85-.23 4 4 0 001.62-.82 4.29 4.29 0 001.14-1.6 6.55 6.55 0 00.43-2.52 6.45 6.45 0 00-.43-2.5 4.46 4.46 0 00-1.12-1.58 4.07 4.07 0 00-1.55-.82 6.89 6.89 0 00-1.75-.23m29.48 16.25a6.7 6.7 0 001.64 2.31 3.94 3.94 0 002.24 1v.85a7.65 7.65 0 01-.84.11 8.53 8.53 0 01-1 .05 13.47 13.47 0 01-1.93-.15 7.1 7.1 0 01-2-.59 6.57 6.57 0 01-1.84-1.32 7.47 7.47 0 01-1.54-2.26l-.86-1.84h-10l-3.07 6h-1.87l11-21.71h1.68zm-15.32-3.32h8.48l-4.13-8.59z"/></g></svg>